<svg width="225" height="275" viewBox="0 0 225 275" fill="none" xmlns="http://www.w3.org/2000/svg">
<path d="M184.689 213.344C184.689 226.162 177.09 236.53 167.785 236.53H58.0676C48.7629 236.53 41.1641 226.162 41.1641 213.344C41.1641 202.812 46.2816 193.914 53.3377 191.056C51.1666 187.138 49.8484 182.239 49.8484 177.014C49.8484 175.218 50.0035 173.422 50.2361 171.789H175.617C175.849 173.504 176.004 175.218 176.004 177.014C176.004 182.321 174.686 187.219 172.515 191.056C179.571 193.914 184.689 202.812 184.689 213.344Z" fill="#CD9E5D"/>
<path d="M82.1822 64.8398H141.5L132.583 85.0867V94.3937H91.0992V85.0867L82.1822 64.8398ZM167.94 4.91562L149.951 45.6543H73.7305L55.7414 4.91562H167.94Z" fill="white"/>
<path d="M190.039 252.94H35.8139L28.7578 270.084H197.095L190.039 252.94Z" fill="#9D705C"/>
<path d="M172.515 191.056C174.686 187.138 176.004 182.239 176.004 177.014C176.004 165.584 169.956 156.032 161.97 154.155L184.766 117.416H77.6074C68.2252 117.416 60.7039 127.785 60.7039 140.602C60.7039 145.664 61.867 150.318 63.883 154.155C55.8965 156.032 49.8484 165.503 49.8484 177.014C49.8484 182.321 51.1666 187.219 53.3377 191.056C46.2816 193.832 41.1641 202.731 41.1641 213.344C41.1641 226.162 48.7629 236.53 58.0676 236.53H167.785C177.168 236.53 184.689 226.162 184.689 213.344C184.689 202.812 179.571 193.914 172.515 191.056V191.056Z" fill="white"/>
<path d="M184.379 213.721C184.379 226.59 176.818 237 167.56 237H58.392C49.1339 237 41.5731 226.59 41.5731 213.721C41.5731 203.148 46.6651 194.213 53.6858 191.344C51.5255 187.41 50.214 182.492 50.214 177.246C50.214 175.443 50.3683 173.639 50.5997 172H175.352C175.584 173.721 175.738 175.443 175.738 177.246C175.738 182.574 174.426 187.492 172.266 191.344C179.287 194.213 184.379 203.148 184.379 213.721Z" fill="#CD9E5D"/>
<path d="M167.785 241.02H58.0676C46.3592 241.02 36.8994 228.611 36.8994 213.344C36.8994 203.057 41.0865 193.914 47.7549 189.179C46.3592 185.423 45.5838 181.259 45.5838 177.014C45.5838 165.829 50.7014 156.032 58.2227 151.705C57.0596 148.277 56.5168 144.521 56.5168 140.684C56.5168 125.417 65.9766 113.008 77.685 113.008H148.246C159.954 113.008 169.414 125.417 169.414 140.684C169.414 144.521 168.793 148.277 167.708 151.705C175.229 156.032 180.347 165.829 180.347 177.014C180.347 181.259 179.649 185.423 178.176 189.179C184.766 193.995 189.031 203.057 189.031 213.344C188.954 228.611 179.494 241.02 167.785 241.02V241.02ZM77.6074 121.907C70.7064 121.907 64.891 130.479 64.891 140.602C64.891 144.766 65.8215 148.685 67.5273 151.95L64.7359 158.482C58.6103 159.951 54.0356 167.87 54.0356 176.932C54.0356 181.259 55.0436 185.341 56.9045 188.77L54.7334 195.22C49.1506 197.424 45.2736 204.854 45.2736 213.263C45.2736 223.386 51.0891 231.958 57.99 231.958H167.708C174.609 231.958 180.424 223.386 180.424 213.263C180.424 204.854 176.547 197.424 170.964 195.22L168.793 188.77C170.654 185.341 171.662 181.259 171.662 176.932C171.662 167.789 167.01 159.87 160.962 158.482L158.171 151.95C159.876 148.685 160.807 144.684 160.807 140.602C160.807 130.479 154.991 121.907 148.09 121.907H77.6074ZM197.095 274.575H28.7578L24.8809 268.37L31.9369 251.225L35.8139 248.531H190.039L193.916 251.225L200.972 268.37L197.095 274.575ZM35.1936 265.594H190.659L187.248 257.43H38.6053L35.1936 265.594V265.594ZM209.579 225.019H201.127V79.2902C201.127 63.207 188.721 50.0629 173.368 50.0629H148.323V41.1641H173.368C193.296 41.1641 209.579 58.227 209.579 79.2902V225.019Z" fill="#3A3033"/>
<path d="M220.589 274.575H197.095L193.218 271.88L186.162 254.736L190.039 248.531H220.589L224.854 253.021V270.166L220.589 274.575V274.575ZM199.887 265.594H216.325V257.43H196.475L199.887 265.594V265.594Z" fill="#3A3033"/>
<path d="M220.589 257.43H194.614L190.349 252.94V225.019L194.614 220.529H220.589L224.854 225.019V252.94L220.589 257.43ZM198.801 248.531H216.325V229.509H198.801V248.531ZM168.095 69.3301H57.0596V41.1641H168.173V69.3301H168.095ZM65.5113 60.4313H159.644V50.1445H65.5113V60.4313V60.4313ZM47.057 200.282H26.9744C18.2125 200.282 9.91583 195.71 4.95333 188.117C-0.00917332 180.525 -1.17226 170.728 1.9293 162.074L10.9238 137.173C14.8008 126.315 24.8809 118.968 35.9689 118.968H66.3643L69.6209 126.315C67.0621 129.499 65.4338 133.826 65.1236 138.643L60.859 142.807H35.9689C34.2631 142.807 32.7123 143.95 32.092 145.664L23.0975 170.564C22.6322 171.952 22.7873 173.422 23.5627 174.646C24.3381 175.871 25.5787 176.524 26.9744 176.524H50.0811L54.2682 180.443C54.6559 183.545 55.5863 186.484 56.982 188.934L54.8109 195.383C53.1051 196.036 51.5543 197.261 50.2361 198.812L47.057 200.282V200.282ZM35.8914 127.948C28.3701 127.948 21.4691 132.928 18.8328 140.357L9.83828 165.258C7.74473 171.136 8.44258 177.83 11.8543 183.055C15.266 188.28 20.9264 191.383 26.8969 191.383H45.1961C45.9715 190.566 46.8244 189.913 47.6773 189.26C47.2121 188.036 46.8244 186.729 46.5143 185.423H26.8969C22.7098 185.423 18.9104 183.3 16.5066 179.708C14.1029 176.034 13.6377 171.544 15.1109 167.462L24.1055 142.562C25.9664 137.418 30.6963 133.989 35.8914 133.989H57.0596C57.4473 131.948 58.0676 129.907 58.7654 128.03H35.8914V127.948Z" fill="#3A3033"/>
<path d="M136.77 98.884H86.8346V86.148L75.5139 60.4312H148.168L136.847 86.148V98.884H136.77ZM95.3638 89.9035H128.318V84.107L134.831 69.3301H88.773L95.2863 84.107V89.9035H95.3638ZM152.665 50.1445H71.0166L49.1506 0.507019H174.531L152.665 50.1445ZM76.3668 41.1641H147.237L161.272 9.32421H62.4097L76.3668 41.1641ZM165.537 156.604L158.403 151.705L176.857 121.907H126.845V113.008H192.52L165.537 156.604ZM63.883 149.746H135.064V158.645H63.883V149.746ZM53.3377 186.648H148.401V195.546H53.3377V186.648Z" fill="#3A3033"/>
<path d="M32.1695 38.225H23.7178V24.9992C23.7178 11.4469 34.1855 0.507019 46.9795 0.507019H55.7414V9.40585H46.9795C38.8379 9.40585 32.1695 16.4269 32.1695 24.9992V38.225Z" fill="#3A3033"/>
</svg>
